PathFileType	4	(X/Y/Z)	C:/Users/opensim2020/Desktop/walking_exp_matlab/subject02_walking07_straight_04.trc																																																																																																																																																				
DataRate	CameraRate	NumFrames	NumMarkers	Units	OrigDataRate	OrigDataStartFrame	OrigNumFrames																																																																																																																																																
100	100	7	50	mm	100	2721	207																																																																																																																																																
Frame#	Time	LFHD			RFHD			LBHD			RBHD			C7			T10			CLAV			STRN			RBAK			LSHO			LUPA			LELB			LFRM			LWRA			LWRB			LFIN			RSHO			RUPA			RELB			RFRM			RWRA			RWRB			RFIN			LASI			RASI			LPSI			RPSI			LTHI			LKNE			LTIB			LANK			LHEE			LTOE			RTHI			RKNE			RTIB			RANK			RHEE			RTOE			*39			*40			*41			*42			*43			*44			*45			*46			*47			*48			*49		
		X1	Y1	Z1	X2	Y2	Z2	X3	Y3	Z3	X4	Y4	Z4	X5	Y5	Z5	X6	Y6	Z6	X7	Y7	Z7	X8	Y8	Z8	X9	Y9	Z9	X10	Y10	Z10	X11	Y11	Z11	X12	Y12	Z12	X13	Y13	Z13	X14	Y14	Z14	X15	Y15	Z15	X16	Y16	Z16	X17	Y17	Z17	X18	Y18	Z18	X19	Y19	Z19	X20	Y20	Z20	X21	Y21	Z21	X22	Y22	Z22	X23	Y23	Z23	X24	Y24	Z24	X25	Y25	Z25	X26	Y26	Z26	X27	Y27	Z27	X28	Y28	Z28	X29	Y29	Z29	X30	Y30	Z30	X31	Y31	Z31	X32	Y32	Z32	X33	Y33	Z33	X34	Y34	Z34	X35	Y35	Z35	X36	Y36	Z36	X37	Y37	Z37	X38	Y38	Z38	X39	Y39	Z39	X40	Y40	Z40	X41	Y41	Z41	X42	Y42	Z42	X43	Y43	Z43	X44	Y44	Z44	X45	Y45	Z45	X46	Y46	Z46	X47	Y47	Z47	X48	Y48	Z48	X49	Y49	Z49	X50	Y50	Z50
																																																																																																																																																							
1	0	-704.48486	1717.6925	954.08234	-721.91809	1704.4043	1096.93152	-845.24896	1667.88513	933.25702	-874.67194	1654.75269	1073.51477	-925.69867	1523.12073	1005.20471	-970.41833	1243.16943	1022.13977	-786.20453	1455.4375	1004.77649	-728.88208	1287.69458	1024.72888	-983.51282	1344.69116	1071.50842	-849.13989	1490.79333	831.08698	-837.77814	1288.09888	755.99078	-822.40149	1146.94897	750.50964	-794.16461	1017.6745	742.70874	-723.97015	901.65131	780.75812	-766.46143	897.73505	744.60779	-739.29755	837.65369	742.45532	-865.30963	1495.20483	1196.5293	-900.85687	1307.00854	1284.46411	-886.16211	1163.05286	1310.94421	-858.43878	1048.77563	1340.9126	-806.85168	921.76672	1335.396	-856.73505	920.28845	1362.64575	-820.56506	857.28888	1372.45947	-739.47107	974.17346	905.77026	-732.70648	981.30627	1159.31628	-946.85461	1024.73474	988.65533	-948.69073	1034.84558	1104.58105	-799.65424	664.02246	842.00446	-813.81592	480.38092	851.80334	-966.98065	379.49139	858.27814	-1113.36108	214.07249	889.23553	-1146.56909	214.29681	948.45007	-1045.71704	74.19106	862.00635	-768.83862	680.53534	1233.7749	-741.68988	472.3006	1190.34546	-780.98743	286.20886	1193.11169	-803.40033	96.05073	1151.3512	-836.46039	43.42778	1092.98669	-653.01373	41.67926	1174.4375	-800.2323	1803.88855	1032.40674	-2845.17603	1033.96082	3360.28345	NaN	NaN	NaN	NaN	NaN	NaN	NaN	NaN	NaN	NaN	NaN	NaN	NaN	NaN	NaN	NaN	NaN	NaN	NaN	NaN	NaN	NaN	NaN	NaN	NaN	NaN	NaN
2	0.01	-695.53625	1719.58826	955.07367	-712.77673	1705.97986	1098.49194	-836.55328	1669.16711	934.90973	-865.60382	1656.14221	1075.26904	-916.62793	1524.67688	1007.49805	-962.3653	1245.11963	1025.25012	-777.24817	1456.71655	1006.27112	-720.34479	1288.87854	1026.17322	-974.48047	1346.995	1075.09998	-841.15753	1491.57007	832.74542	-832.66064	1288.46619	758.40155	-819.3457	1147.27246	753.00012	-795.85004	1017.82373	743.32928	-729.74194	898.35077	779.17883	-772.94769	897.12024	743.07391	-748.69196	835.38361	740.3927	-854.42273	1497.10913	1198.53796	-887.91327	1308.81287	1288.00635	-872.01465	1164.82874	1314.25415	-842.42926	1050.85425	1343.76685	-789.27313	924.72089	1337.81689	-838.87103	922.48413	1365.67871	-801.41962	860.24213	1375.20508	-732.15631	975.64227	906.3443	-724.21246	981.85791	1161.22021	-938.93445	1026.25391	991.44928	-940.62799	1036.30872	1107.10339	-785.74072	666.52466	842.89502	-795.08344	483.18524	853.21442	-946.935	381.29352	862.02734	-1091.92188	214.42067	893.3161	-1124.49561	212.60428	953.30725	-1021.87109	77.48595	860.59937	-762.56665	680.56805	1234.77661	-739.21332	471.90134	1190.56055	-780.33063	286.26251	1193.19141	-803.32629	96.17642	1151.0155	-836.43256	43.49922	1092.81714	-652.9975	41.67781	1174.53784	-791.51855	1805.37866	1033.95605	-2845.18164	1034.06287	3360.15894	NaN	NaN	NaN	NaN	NaN	NaN	NaN	NaN	NaN	NaN	NaN	NaN	NaN	NaN	NaN	NaN	NaN	NaN	NaN	NaN	NaN	NaN	NaN	NaN	NaN	NaN	NaN
3	0.02	-686.41333	1721.2179	956.30347	-703.82587	1707.60388	1099.6095	-827.88043	1670.47083	936.53162	-856.53424	1657.46545	1076.97839	-907.55042	1526.21484	1009.65503	-953.55017	1246.89099	1028.30823	-768.29895	1457.90869	1007.6673	-711.80682	1289.91956	1027.56531	-965.51105	1349.26697	1078.53552	-833.09808	1492.41418	834.3736	-827.35364	1288.73865	760.88464	-816.73718	1147.85547	755.14081	-797.59216	1018.20978	743.94836	-734.47797	896.00909	777.43616	-779.13245	896.8772	741.862	-757.61066	833.94745	738.45642	-843.58484	1498.98572	1200.45862	-874.94476	1310.58215	1290.90442	-857.68298	1166.77087	1317.5127	-826.32874	1053.14514	1346.56775	-771.565	927.85028	1340.12598	-820.74103	924.87762	1368.58398	-782.04938	863.20868	1377.80969	-723.72791	977.61609	906.6369	-716.50885	982.23865	1162.8158	-931.09906	1027.94556	993.95026	-932.6264	1037.55408	1109.35083	-771.79993	669.28918	843.75781	-776.74219	486.02991	854.60663	-927.14899	382.47855	865.37036	-1069.72937	213.56834	897.1712	-1102.01221	209.84807	957.48175	-996.49866	79.81693	860.09015	-756.70123	680.40863	1235.5304	-737.11584	471.60779	1190.85046	-779.87506	286.39853	1193.24707	-803.22699	96.29884	1150.81543	-836.21173	43.70578	1092.63464	-653.00409	41.67661	1174.56335	-782.88708	1806.81995	1035.38892	-2845.68433	1034.18945	3357.29297	NaN	NaN	NaN	NaN	NaN	NaN	NaN	NaN	NaN	NaN	NaN	NaN	NaN	NaN	NaN	NaN	NaN	NaN	NaN	NaN	NaN	NaN	NaN	NaN	NaN	NaN	NaN
4	0.03	-678.4375	1722.5459	957.51111	-694.74683	1709.04468	1100.67529	-819.17126	1671.90515	938.12024	-847.41858	1658.77283	1078.55933	-898.65552	1527.72437	1011.79272	-945.43237	1248.8031	1031.34351	-759.37482	1459.06409	1009.11761	-703.26819	1290.91943	1028.98584	-956.58478	1351.50696	1081.78174	-824.97168	1493.15002	836.12103	-822.60126	1289.33264	762.98059	-814.69061	1148.80408	756.97711	-799.47943	1018.92163	744.51691	-740.91388	893.92664	775.97333	-785.06622	897.30756	740.6911	-766.38098	833.04596	736.7373	-832.92456	1500.95178	1202.17456	-861.95483	1312.54736	1294.00952	-843.27032	1168.97021	1320.72644	-810.08435	1055.77417	1349.76086	-753.71198	931.21857	1342.52393	-802.22485	927.34845	1371.19727	-762.77411	866.58789	1380.1875	-715.99103	979.59235	907.53265	-708.61304	983.14557	1164.79761	-923.19629	1029.66663	996.17902	-924.66809	1038.59766	1111.33191	-757.37506	671.79364	844.89087	-758.93005	488.83932	855.97919	-907.69562	383.08713	868.53363	-1046.75562	211.48442	900.41071	-1079.00281	206.1402	960.9201	-970.07245	80.86501	860.58942	-751.51569	680.21155	1236.3175	-734.97107	471.2991	1191.13989	-779.39551	286.49286	1193.3363	-803.04468	96.34354	1150.58594	-836.14648	43.57549	1092.32678	-653.01764	41.67135	1174.62195	-774.06024	1807.98999	1036.76648	-2845.88306	1034.0531	3357.37207	NaN	NaN	NaN	NaN	NaN	NaN	NaN	NaN	NaN	NaN	NaN	NaN	NaN	NaN	NaN	NaN	NaN	NaN	NaN	NaN	NaN	NaN	NaN	NaN	NaN	NaN	NaN
5	0.04	-669.95953	1723.92566	958.50336	-685.67755	1710.47571	1101.82581	-810.48883	1672.93469	939.466	-838.36804	1659.98608	1080.0481	-889.76788	1529.14709	1013.83728	-936.84027	1250.51868	1034.22705	-750.52789	1460.15161	1010.39667	-694.81818	1291.93237	1030.47571	-947.66614	1353.6322	1084.88147	-817.02185	1494.11316	837.71344	-817.98322	1289.93762	765.11493	-812.7627	1149.6897	758.68988	-801.47021	1019.83716	744.91913	-746.48474	892.63354	774.65924	-790.72266	897.8385	739.70441	-774.87183	832.89105	735.1911	-822.29297	1502.87964	1203.90076	-848.93231	1314.57507	1296.8269	-828.72607	1171.09131	1323.63879	-793.67065	1058.48938	1352.17969	-735.81897	934.65784	1344.33105	-783.84796	930.1795	1373.92493	-743.20801	870.10468	1382.74829	-708.12836	981.77838	908.776	-700.88062	984.2395	1166.59241	-915.21002	1031.20264	997.9696	-916.86536	1039.49988	1113.04529	-743.72461	674.7561	845.67468	-741.67175	491.5596	857.36163	-888.38885	383.03375	871.52222	-1023.18457	208.29326	903.15869	-1055.28528	201.46747	963.70508	-942.59302	80.91818	861.75964	-747.31921	680.04303	1236.56067	-732.93433	471.03403	1191.33386	-778.60669	286.51282	1193.4071	-802.7793	96.42426	1150.45947	-836.22388	43.91588	1092.28955	-652.97015	41.64762	1174.65149	-765.29382	1809.3335	1037.98242	-2845.82593	1034.1333	3357.5105	NaN	NaN	NaN	NaN	NaN	NaN	NaN	NaN	NaN	NaN	NaN	NaN	NaN	NaN	NaN	NaN	NaN	NaN	NaN	NaN	NaN	NaN	NaN	NaN	NaN	NaN	NaN
6	0.05	-661.31866	1725.21118	959.54224	-676.51605	1711.78809	1102.96521	-801.69586	1673.9718	940.99646	-829.33191	1661.04565	1081.34912	-880.91388	1530.46973	1015.7677	-928.40149	1252.11975	1037.01416	-741.74805	1461.20959	1011.69708	-686.40674	1292.88892	1031.90247	-938.72504	1355.63	1087.76941	-808.93317	1494.90674	839.34143	-813.31421	1290.62415	766.77374	-811.44043	1150.64783	760.33221	-803.41943	1020.96027	745.28503	-751.94318	891.67169	773.50708	-796.13361	898.75513	738.8656	-782.63934	833.34161	733.84021	-812.06342	1505.02661	1205.56616	-836.04028	1316.69604	1299.65137	-814.19031	1173.51343	1326.58667	-777.21967	1061.19287	1354.43542	-717.91919	938.27338	1346.16064	-765.3476	933.20831	1376.62219	-723.76263	873.81256	1384.69775	-699.8457	984.25653	910.19727	-693.26953	985.52478	1168.46826	-907.28143	1032.68896	999.48853	-909.00647	1040.2262	1114.45044	-730.0799	677.62573	846.32349	-724.84644	494.16089	858.78833	-869.05768	382.22916	874.22229	-998.96313	203.93004	905.55804	-1031.22656	195.78076	966.03308	-913.83142	80.06465	863.51221	-743.82513	679.94763	1236.67151	-730.79694	470.82727	1191.45605	-777.49121	286.56686	1193.48901	-802.42072	96.41327	1150.26514	-836.13977	43.81651	1092.09607	-652.99084	41.60005	1174.66553	-756.42908	1810.68701	1039.21777	-2845.1604	1034.09802	3360.22534	NaN	NaN	NaN	NaN	NaN	NaN	NaN	NaN	NaN	NaN	NaN	NaN	NaN	NaN	NaN	NaN	NaN	NaN	NaN	NaN	NaN	NaN	NaN	NaN	NaN	NaN	NaN
7	0.06	-652.43329	1726.2981	960.73145	-667.5589	1713.11304	1103.80603	-793.10785	1675.15833	942.25775	-820.35883	1662.34998	1082.82605	-872.14838	1531.71045	1017.6123	-919.6781	1253.56934	1039.5177	-732.97467	1462.2677	1012.80231	-678.01788	1293.86096	1033.28455	-929.78845	1357.37158	1090.53455	-801.01117	1495.67346	840.93481	-808.97925	1291.48035	768.29944	-809.5575	1151.78088	761.70923	-805.65002	1022.40125	745.56232	-757.28967	891.32788	772.43237	-801.48309	899.90625	738.25604	-790.19617	834.02686	732.72021	-801.98291	1506.92932	1206.71912	-823.25305	1318.84741	1302.16553	-799.52417	1175.82959	1329.31396	-760.68933	1064.08752	1356.73157	-699.89606	942.04077	1347.84546	-746.96814	936.44135	1379.28198	-704.10742	877.5791	1386.91028	-691.7403	986.7879	912.19373	-685.75067	986.81622	1170.39514	-899.2074	1034.01794	1000.65759	-901.24097	1040.84119	1115.5946	-717.19458	680.44958	847.22418	-708.28973	496.73734	860.36682	-849.74786	380.75009	876.5484	-974.08966	198.51965	907.70245	-1006.08838	189.09793	968.06433	-884.40356	78.3833	865.4931	-740.06952	679.84436	1236.67908	-728.77502	470.7717	1191.83618	-776.1012	286.56641	1193.6084	-802.20093	96.53081	1150.18433	-836.23975	44.12265	1092.07263	-653.00861	41.61322	1174.68896	-747.72943	1811.80383	1040.12073	-2845.20435	1033.90369	3360.28296	NaN	NaN	NaN	NaN	NaN	NaN	NaN	NaN	NaN	NaN	NaN	NaN	NaN	NaN	NaN	NaN	NaN	NaN	NaN	NaN	NaN	NaN	NaN	NaN	NaN	NaN	NaN
